<svg width="900" height="1300" xmlns="http://www.w3.org/2000/svg" clip-rule="evenodd" fill-rule="evenodd" image-rendering="optimizeQuality" text-rendering="geometricPrecision" shape-rendering="geometricPrecision">
 <g id="Layer_1">
  <title>Layer 1</title>
  <rect transform="rotate(180 450 650)" x="0" y="0" stroke-width="0" stroke="#000" id="svg_3" height="1300" width="900" fill="#262525"/>
  <path stroke="#000" stroke-width="0" id="svg_4" d="m33.16497,442.22424l0,0c0,-230.5778 187.81673,-417.49923 419.49957,-417.49923l0,0c111.25976,0 217.96229,43.98655 296.63134,122.28315c78.6722,78.2966 122.86907,184.48979 122.86907,295.21609l0,0c0,230.58063 -187.81541,417.50077 -419.50038,417.50077l0,0c-231.68284,0 -419.49957,-186.92015 -419.49957,-417.50077l-0.00003,0zm677.397,186.76836l0,0c92.36003,-126.32567 78.6309,-300.75242 -32.36827,-411.22093c-110.99922,-110.46943 -286.26142,-124.13312 -413.18891,-32.2124l445.55718,443.43333zm-515.79237,-373.53291c-92.36068,126.32499 -78.63189,300.75175 32.36666,411.21869c110.99824,110.47011 286.26049,124.13368 413.18798,32.21397l-445.55467,-443.43266l0.00003,0z" fill="#7c2a2a"/>
  <g stroke="null">
   <path stroke="null" d="m239.06781,128.88091l414.84324,0c9.11917,0 16.56955,7.22131 16.56955,16.05725l0,199.79393c-31.52288,-15.42157 -66.63299,-23.65997 -102.70232,-23.65997c-30.81332,0 -60.28636,5.94996 -87.14454,16.7565a226.97396,219.60805 0 0 0 -73.95197,47.86663c-59.30086,57.35097 -81.11328,142.15055 -57.17218,219.24571l-116.55189,0c-24.96602,0 -45.37245,19.76962 -45.37245,43.9c0,24.1558 20.43271,43.91271 45.37245,43.91271l168.96738,0l4.7304,4.70403c10.73539,10.387 22.40372,19.61706 34.83417,27.62661l-206.81061,0c-44.92569,0 -81.6783,-35.54717 -81.6783,-79.01491l0,-433.90182c0,-45.80703 38.72361,-83.28667 86.06706,-83.28667zm333.72996,235.32839c50.12914,0 98.01133,19.19751 133.44994,53.47332c48.95968,47.3708 67.17173,117.20651 47.44857,181.3211a187.61043,181.52197 0 0 1 -19.17127,41.98025l73.09787,77.08244a9.05609,8.7622 0 0 1 -0.5256,12.34489l-53.67694,47.42166c-3.66606,3.25468 -9.36883,3.00041 -12.73267,-0.54668l-69.91799,-74.41259c-29.60444,17.45575 -63.29543,26.55867 -97.97191,26.55867c-50.12914,0 -98.01133,-19.19751 -133.44994,-53.48604a189.04926,182.91411 0 0 1 -40.95741,-59.29614c-29.24966,-68.17022 -12.62755,-147.09614 40.98369,-198.94212c17.33167,-16.80735 38.10603,-30.36003 61.24558,-39.62823c22.25918,-8.95036 46.66017,-13.87052 72.17807,-13.87052zm106.48664,79.57431c-42.98097,-41.59884 -108.12914,-54.09629 -164.10558,-31.65682c-100.44223,40.23848 -123.51609,165.54354 -48.89398,237.70583c43.05981,41.5607 108.06344,54.12172 164.11872,31.66953c56.34436,-22.64289 92.97871,-75.67124 92.97871,-134.68768c0,-19.76962 -4.03398,-38.62386 -11.36611,-55.72363c-7.64749,-17.79901 -18.82963,-33.85627 -32.73176,-47.30724zm-449.84823,214.084l140.17762,0l2.4966,3.71237c3.07476,4.42433 6.29406,8.73423 9.64477,12.917l-152.31899,0c-3.6135,0 -6.59628,-2.86056 -6.59628,-6.3695l0,-3.87764c0,-3.49623 2.9565,-6.38222 6.59628,-6.38222zm0,-32.92818l122.16267,0c2.45718,5.63212 5.1903,11.18795 8.18623,16.62936l-130.3489,0c-3.6135,0 -6.59628,-2.86056 -6.59628,-6.3695l0,-3.87764c0,-3.52166 2.9565,-6.38222 6.59628,-6.38222zm25.62302,-431.05397l14.33575,0c7.34527,0 13.33711,4.69131 13.33711,10.43785l0,327.37472c0,5.73383 -6.00498,10.42514 -13.33711,10.42514l-14.33575,0c-7.33213,0 -13.32397,-4.69131 -13.32397,-10.42514l0,-327.38743c0,-5.73383 5.99184,-10.42514 13.32397,-10.42514z"/>
  </g>
  <text font-style="normal" font-weight="normal" xml:space="preserve" text-anchor="start" font-family="'Great Vibes'" font-size="171" id="svg_6" y="1139" x="118" stroke-width="0" stroke="#000" fill="#000000">No Cover</text>
 </g>

</svg>
